<svg width="32" height="32" viewBox="0 0 32 32" fill="none" xmlns="http://www.w3.org/2000/svg"><path fill-rule="evenodd" clip-rule="evenodd" d="M16 32c8.837 0 16-7.163 16-16S24.837 0 16 0 0 7.163 0 16s7.163 16 16 16z" fill="#FF4E50"/><path fill-rule="evenodd" clip-rule="evenodd" d="M13.076 10.171v9.4c-.512-.107-1.107-.066-1.698.152-1.328.494-1.797 1.695-1.445 2.682.352.988 1.392 1.387 2.72.893 1.128-.418 1.867-1.348 1.849-2.223V13.31l5.624-1.289v5.965a3.108 3.108 0 00-1.699.153c-1.328.494-1.797 1.695-1.445 2.682.352.988 1.392 1.387 2.72.894 1.128-.42 1.867-1.349 1.85-2.223V8.35l-8.476 1.821z" fill="#fff"/></svg>