<svg width="32" height="32" viewBox="0 0 32 32" fill="none" xmlns="http://www.w3.org/2000/svg"><path fill-rule="evenodd" clip-rule="evenodd" d="M16 32c8.837 0 16-7.163 16-16S24.837 0 16 0 0 7.163 0 16s7.163 16 16 16z" fill="#19D4CA"/><path fill-rule="evenodd" clip-rule="evenodd" d="M10.27 17.918c-1.199 1.179-.186 2.388-1.78 4.183-.719.81 2.961.563 4.784-1.23.773-.76.555-1.868-.275-2.683-.828-.816-1.955-1.03-2.729-.27zm13.29-10.22c-.617-.605-7.43 4.855-9.458 6.848-1.007.99-1.343 1.52-1.65 1.917-.135.172.042.226.122.267.398.202.677.392 1.038.746.36.354.553.629.76 1.02.04.08.095.253.27.122.404-.304.944-.634 1.95-1.624C18.62 15 24.174 8.302 23.559 7.698z" fill="#fff"/></svg>