<svg width="32" height="32" viewBox="0 0 32 32" fill="none" xmlns="http://www.w3.org/2000/svg"><path fill-rule="evenodd" clip-rule="evenodd" d="M16 32c8.837 0 16-7.163 16-16S24.837 0 16 0 0 7.163 0 16s7.163 16 16 16z" fill="#FFA710"/><path fill-rule="evenodd" clip-rule="evenodd" d="M15.986 13.346a2.376 2.376 0 10.001 4.752 2.376 2.376 0 000-4.752zm6.337-2.376h-1.9a.705.705 0 01-.626-.45l-.491-1.475a.706.706 0 00-.626-.45h-5.386a.705.705 0 00-.626.45l-.491 1.474a.707.707 0 01-.626.45h-1.9a1.59 1.59 0 00-1.585 1.585v7.128c0 .872.713 1.584 1.584 1.584h12.674c.871 0 1.584-.712 1.584-1.584v-7.128a1.59 1.59 0 00-1.585-1.584zm-6.337 8.712a3.96 3.96 0 110-7.92 3.96 3.96 0 010 7.92zm5.783-6.02a.554.554 0 11.002-1.11.554.554 0 01-.002 1.11z" fill="#fff"/></svg>