<svg width="32" height="32" viewBox="0 0 32 32" fill="none" xmlns="http://www.w3.org/2000/svg"><path fill-rule="evenodd" clip-rule="evenodd" d="M16 32c8.837 0 16-7.163 16-16S24.837 0 16 0 0 7.163 0 16s7.163 16 16 16z" fill="#667DF3"/><path fill-rule="evenodd" clip-rule="evenodd" d="M17.525 24.136l1.372-.792-.09-7.265 3.541-2.045s2.058-1.188 1.504-2.148c-.555-.961-2.613.227-2.613.227l-3.542 2.045-6.246-3.71-1.372.792 4.875 4.502-2.46 1.42-2.336-.48-1.372.792 2.444 1.699.25 2.965 1.371-.792.752-2.263 2.46-1.42 1.462 6.473z" fill="#fff"/></svg>