<svg width="32" height="32" viewBox="0 0 32 32" fill="none" xmlns="http://www.w3.org/2000/svg">
<path fill-rule="evenodd" clip-rule="evenodd" d="M16 32C24.8366 32 32 24.8366 32 16C32 7.16344 24.8366 0 16 0C7.16344 0 0 7.16344 0 16C0 24.8366 7.16344 32 16 32Z" fill="#FF4E50"/>
<path fill-rule="evenodd" clip-rule="evenodd" d="M13.076 10.1711V19.5711C12.564 19.4639 11.9688 19.5047 11.3784 19.7231C10.0496 20.2167 9.58078 21.4175 9.93278 22.4047C10.2848 23.3927 11.3248 23.7919 12.6528 23.2983C13.7808 22.8799 14.52 21.9503 14.5016 21.0751C14.5016 21.0751 14.5016 16.0903 14.5016 13.3103L20.1256 12.0215V17.9863C19.6128 17.8799 19.0176 17.9199 18.4272 18.1391C17.0992 18.6327 16.6304 19.8335 16.9824 20.8207C17.3336 21.8087 18.3736 22.2079 19.7016 21.7151C20.8304 21.2959 21.5688 20.3663 21.5512 19.4919V8.35034L13.076 10.1711Z" fill="white"/>
</svg>
