<svg width="32" height="32" viewBox="0 0 32 32" fill="none" xmlns="http://www.w3.org/2000/svg">
<path fill-rule="evenodd" clip-rule="evenodd" d="M16 32C24.8366 32 32 24.8366 32 16C32 7.16344 24.8366 0 16 0C7.16344 0 0 7.16344 0 16C0 24.8366 7.16344 32 16 32Z" fill="#19D4CA"/>
<path fill-rule="evenodd" clip-rule="evenodd" d="M10.2704 17.9176C9.07118 19.0968 10.084 20.3064 8.49038 22.1008C7.77118 22.9112 11.4512 22.664 13.2736 20.8712C14.0472 20.1112 13.8288 19.0032 12.9992 18.188C12.1712 17.372 11.044 17.1576 10.2704 17.9176ZM23.5592 7.69761C22.9432 7.09281 16.1304 12.5528 14.1016 14.5464C13.0952 15.536 12.7592 16.0664 12.4512 16.4632C12.3168 16.6352 12.4944 16.6888 12.5736 16.7296C12.972 16.932 13.2512 17.1216 13.612 17.476C13.972 17.8304 14.1648 18.1048 14.3712 18.496C14.4128 18.5752 14.4672 18.7488 14.6416 18.6176C15.0456 18.3144 15.5856 17.984 16.592 16.9944C18.62 15 24.1744 8.30161 23.5592 7.69761Z" fill="white"/>
</svg>
