<svg width="32" height="32" viewBox="0 0 32 32" fill="none" xmlns="http://www.w3.org/2000/svg">
<path fill-rule="evenodd" clip-rule="evenodd" d="M16 32C24.8366 32 32 24.8366 32 16C32 7.16344 24.8366 0 16 0C7.16344 0 0 7.16344 0 16C0 24.8366 7.16344 32 16 32Z" fill="#FFA710"/>
<path fill-rule="evenodd" clip-rule="evenodd" d="M15.9864 13.3456C14.6736 13.3456 13.6104 14.4104 13.6104 15.7216C13.6104 17.0344 14.6744 18.0984 15.9864 18.0984C17.2984 18.0984 18.3632 17.0344 18.3632 15.7216C18.3632 14.4104 17.2992 13.3456 15.9864 13.3456ZM22.3232 10.9696H20.4224C20.1608 10.9696 19.8792 10.7672 19.7968 10.5192L19.3056 9.04476C19.2224 8.79676 18.9416 8.59436 18.68 8.59436H13.2936C13.032 8.59436 12.7504 8.79676 12.668 9.04476L12.1768 10.5192C12.0936 10.7672 11.812 10.9696 11.5512 10.9696H9.65041C8.77921 10.9696 8.06641 11.6824 8.06641 12.5536V19.6824C8.06641 20.5536 8.77921 21.2664 9.65041 21.2664H22.324C23.1952 21.2664 23.908 20.5536 23.908 19.6824V12.5536C23.908 11.6824 23.1944 10.9696 22.3232 10.9696ZM15.9864 19.6824C13.7992 19.6824 12.0264 17.9096 12.0264 15.7216C12.0264 13.5352 13.7992 11.7616 15.9864 11.7616C18.1736 11.7616 19.9472 13.5352 19.9472 15.7216C19.9472 17.9096 18.1736 19.6824 15.9864 19.6824ZM21.7688 13.6616C21.4632 13.6616 21.2152 13.4128 21.2152 13.1072C21.2152 12.8016 21.4632 12.5528 21.7688 12.5528C22.0752 12.5528 22.3232 12.8016 22.3232 13.1072C22.3232 13.4128 22.0752 13.6616 21.7688 13.6616Z" fill="white"/>
</svg>
